#!OML:ASF E:\Steps\Project 1\Capture day 1\Session 2\Subject.ASF
:FULLY-SPECIFIED
:DEGREES
230
root 9.05453 16.1834 30.5494 -151.781 1.50188 176.6
lowerback -25.6601 -0.647156 -6.00607
upperback -0.232628 1.58192 -1.5987
thorax 14.0919 0.533482 2.23988
lowerneck -5.79282 -1.52636 -1.51261
upperneck 14.1325 -2.78646 2.90571
head 5.26304 -1.43388 0.962268
rclavicle 1.38155e-014 -1.5704e-014
rhumerus -32.5876 -12.3623 -84.3059
rradius 39.4461
rwrist -1.04034
rhand -8.31172 -55.2521
rfingers 7.12502
rthumb 17.6089 -84.4746
lclavicle 1.38155e-014 -1.5704e-014
lhumerus -34.8661 14.6371 75.669
lradius 21.9521
lwrist -9.57079
lhand -20.7652 -10.5224
lfingers 7.12502
lthumb 5.60103 19.3836
rfemur -21.6375 6.85113 20.014
rtibia 6.98582
rfoot -23.6322 -7.93206
rtoes -33.1151
lfemur -51.5427 -8.83833 -15.5558
ltibia 24.9394
lfoot -5.2511 6.70751
ltoes -35.9532
231
root 9.05203 16.1768 30.5025 -151.75 1.78994 176.62
lowerback -25.5752 -0.554346 -6.02596
upperback -0.268376 1.71579 -1.67211
thorax 13.9936 0.601433 2.21468
lowerneck -5.91815 -1.39942 -1.50837
upperneck 14.4434 -2.6256 2.81039
head 5.37579 -1.36495 0.939618
rclavicle -6.95746e-015 2.40529e-014
rhumerus -32.621 -11.8623 -84.5809
rradius 39.7475
rwrist -1.46333
rhand -8.74547 -54.5824
rfingers 7.12502
rthumb 17.1914 -83.8419
lclavicle -6.95746e-015 2.40529e-014
lhumerus -34.2891 14.0299 75.7603
lradius 20.3391
lwrist -8.89679
lhand -21.4785 -10.8286
lfingers 7.12502
lthumb 4.91231 19.0945
rfemur -21.572 6.92683 19.9771
rtibia 7.08431
rfoot -23.8381 -7.7493
rtoes -33.2976
lfemur -51.1124 -8.64968 -15.4531
ltibia 23.08
lfoot -4.79535 6.70065
ltoes -33.8672
232
root 9.04523 16.173 30.4473 -151.777 1.88435 176.744
lowerback -25.5098 -0.432282 -5.94844
upperback -0.240472 1.8441 -1.68434
thorax 13.9822 0.662189 2.2013
lowerneck -6.4025 -1.34115 -1.40437
upperneck 15.3094 -2.58357 2.53936
head 5.72324 -1.36505 0.832196
rclavicle 8.69683e-015 -6.16232e-015
rhumerus -32.5396 -11.564 -84.763
rradius 39.9848
rwrist -1.6208
rhand -8.98596 -54.8025
rfingers 7.12502
rthumb 16.96 -84.082
lclavicle 8.69683e-015 -6.16232e-015
lhumerus -34.6202 14.3152 75.4664
lradius 20.3284
lwrist -9.11651
lhand -21.2546 -11.1653
lfingers 7.12502
lthumb 5.12856 18.7526
rfemur -21.3405 6.83614 20.0691
rtibia 7.0688
rfoot -24.0658 -7.544
rtoes -33.1551
lfemur -50.7459 -8.59577 -15.2319
ltibia 21.6118
lfoot -4.54706 6.70192
ltoes -33.1073
233
root 9.04282 16.1605 30.3957 -151.5 1.99478 176.855
lowerback -25.6996 -0.336378 -5.78337
upperback -0.297173 1.96718 -1.81478
thorax 14.022 0.740835 2.00658
lowerneck -5.78708 -1.57816 -1.20941
upperneck 14.3136 -2.89012 2.75474
head 5.31465 -1.48306 0.857716
rclavicle -3.47873e-015 -1.70955e-014
rhumerus -32.3267 -11.4714 -85.1253
rradius 40.0744
rwrist -1.52167
rhand -8.58657 -55.1565
rfingers 7.12502
rthumb 17.3444 -84.4026
lclavicle -3.47873e-015 -1.70955e-014
lhumerus -35.0987 14.9262 74.7936
lradius 20.5269
lwrist -9.74113
lhand -20.7136 -11.5056
lfingers 7.12502
lthumb 5.65083 18.3991
rfemur -21.5061 6.88506 20.1691
rtibia 7.23649
rfoot -24.322 -7.50015
rtoes -33.2093
lfemur -50.7961 -8.34345 -15.122
ltibia 20.4436
lfoot -4.09025 6.68688
ltoes -35.7219
234
root 9.03866 16.15 30.34 -151.348 2.17906 176.744
lowerback -25.822 -0.33704 -5.98259
upperback -0.30964 2.05301 -1.87324
thorax 14.0665 0.770676 2.08787
lowerneck -5.26051 -1.70562 -1.38452
upperneck 13.2733 -3.02077 3.17618
head 4.91501 -1.52222 1.02002
rclavicle -2.23633e-014 1.53064e-014
rhumerus -32.1658 -11.1968 -85.3022
rradius 40.1578
rwrist -1.55267
rhand -8.2051 -55.1371
rfingers 7.12502
rthumb 17.7115 -84.3505
lclavicle -2.23633e-014 1.53064e-014
lhumerus -35.3823 15.4939 74.3749
lradius 20.353
lwrist -10.2968
lhand -20.6173 -11.5537
lfingers 7.12502
lthumb 5.74384 18.3484
rfemur -21.5641 6.88954 19.9865
rtibia 7.48677
rfoot -24.579 -7.48331
rtoes -33.0836
lfemur -50.6237 -8.46902 -15.0741
ltibia 19.1408
lfoot -3.88011 6.97815
ltoes -37.4523
235
root 9.03384 16.1381 30.2806 -151.223 2.35119 176.602
lowerback -25.9654 -0.386997 -6.21865
upperback -0.302442 2.08326 -1.9075
thorax 14.148 0.769238 2.19799
lowerneck -6.15267 -1.49253 -1.2631
upperneck 14.7981 -2.77247 2.58654
head 5.5237 -1.43984 0.815818
rclavicle -6.26172e-015 -2.64384e-014
rhumerus -31.9303 -10.8592 -85.4789
rradius 40.135
rwrist -1.59856
rhand -8.56738 -55.1376
rfingers 7.12502
rthumb 17.3628 -84.3821
lclavicle -6.26172e-015 -2.64384e-014
lhumerus -35.5134 16.0394 74.0159
lradius 20.0741
lwrist -10.6857
lhand -20.8023 -11.2193
lfingers 7.12502
lthumb 5.56519 18.6876
rfemur -21.5196 6.99113 19.7578
rtibia 7.58457
rfoot -24.8036 -7.56273
rtoes -32.8917
lfemur -50.4002 -8.61877 -15.032
ltibia 17.6997
lfoot -3.69176 7.23186
ltoes -36.3102
236
root 9.02562 16.1311 30.2127 -151.399 2.49307 176.677
lowerback -25.8543 -0.310829 -6.23127
upperback -0.200142 2.15934 -1.86994
thorax 14.199 0.789495 2.27278
lowerneck -5.89113 -1.57769 -1.16165
upperneck 14.2883 -2.81824 2.33668
head 5.31663 -1.46639 0.723907
rclavicle 3.27995e-015 5.58585e-014
rhumerus -31.6945 -10.6324 -85.5501
rradius 40.1552
rwrist -1.54502
rhand -8.81662 -55.5157
rfingers 7.12502
rthumb 17.123 -84.7812
lclavicle 3.27995e-015 5.58585e-014
lhumerus -35.638 16.7428 73.7019
lradius 19.8168
lwrist -11.171
lhand -20.9367 -11.052
lfingers 7.12502
lthumb 5.43548 18.8583
rfemur -21.0217 6.89476 19.8384
rtibia 7.49079
rfoot -25.0146 -7.36655
rtoes -33.1204
lfemur -49.7693 -8.55518 -15.0312
ltibia 16.6093
lfoot -3.59712 7.19023
ltoes -37.6279
